<svg width="125" height="106" viewBox="0 0 125 106" fill="none" xmlns="http://www.w3.org/2000/svg">
<path d="M3 3V88C3 96.2843 9.71573 103 18 103H103.935" stroke="#FCFCFC" stroke-width="6" stroke-miterlimit="10" stroke-linecap="round" stroke-linejoin="round"/>
<path d="M117 56.9282H96.8379C94.0765 56.9282 91.8379 59.1668 91.8379 61.9282V81.8115C91.8379 84.5729 94.0765 86.8115 96.8379 86.8115H117C119.762 86.8115 122 84.5729 122 81.8115V61.9282C122 59.1668 119.762 56.9282 117 56.9282Z" stroke="#FCFCFC" stroke-width="4.5" stroke-linecap="round" stroke-linejoin="round"/>
<path d="M95.3965 55.3491C95.8157 51.2645 96.513 49.7926 98.6898 47.1413C100.867 44.49 103.819 43.0005 106.897 43.0005C109.976 43.0005 112.928 44.49 115.105 47.1413C117.282 49.7926 118.126 51.5221 118.545 55.3492" stroke="#FCFCFC" stroke-width="4.5" stroke-linecap="round" stroke-linejoin="round"/>
<path d="M106.978 71.5718C108.969 71.5718 110.583 69.9728 110.583 68.0005C110.583 66.0281 108.969 64.4292 106.978 64.4292C104.987 64.4292 103.373 66.0281 103.373 68.0005C103.373 69.9728 104.987 71.5718 106.978 71.5718Z" fill="#FCFCFC"/>
<path d="M107.151 68.7148H106.807C105.708 68.7148 104.816 69.2773 104.816 69.9711V76.0303C104.816 76.724 105.708 77.2865 106.807 77.2865H107.151C108.251 77.2865 109.142 76.724 109.142 76.0303V69.9711C109.142 69.2773 108.251 68.7148 107.151 68.7148Z" fill="#FCFCFC"/>
<path d="M22.668 82.4653L45.0295 31.7132L65.2194 50.7651L96.1444 22.9199" stroke="#FCFCFC" stroke-width="6" stroke-miterlimit="10" stroke-linecap="round" stroke-linejoin="round"/>
<path d="M88.8833 20.7465L97.3797 18.8894L96.7372 26.9397" stroke="#FCFCFC" stroke-width="6" stroke-miterlimit="10" stroke-linecap="round" stroke-linejoin="round"/>
</svg>
