<svg width="148" height="100" viewBox="0 0 148 100" fill="none" xmlns="http://www.w3.org/2000/svg">
<path d="M92.5257 59.0179L89.5237 56.4824C89.6658 55.6221 89.7391 54.7438 89.7391 53.8654C89.7391 52.987 89.6658 52.1086 89.5237 51.2484L92.5257 48.7129C92.7522 48.5214 92.9142 48.2663 92.9904 47.9817C93.0665 47.697 93.0531 47.3961 92.952 47.1191L92.9107 47.0014C92.0843 44.7196 90.8467 42.6043 89.2579 40.7577L89.1754 40.6627C88.9827 40.4388 88.7258 40.2778 88.4386 40.2011C88.1514 40.1243 87.8474 40.1352 87.5667 40.2325L83.8405 41.541C82.4655 40.4272 80.9302 39.5489 79.271 38.9331L78.5515 35.0846C78.4972 34.795 78.355 34.5286 78.1438 34.3207C77.9326 34.1129 77.6623 33.9734 77.369 33.9209L77.2452 33.8983C74.8574 33.4727 72.3458 33.4727 69.9579 33.8983L69.8341 33.9209C69.5408 33.9734 69.2706 34.1129 69.0594 34.3207C68.8482 34.5286 68.706 34.795 68.6517 35.0846L67.9275 38.9512C66.2816 39.5671 64.7489 40.445 63.3901 41.5501L59.6365 40.2325C59.3558 40.1345 59.0516 40.1231 58.7642 40.1999C58.4769 40.2768 58.22 40.4382 58.0277 40.6627L57.9452 40.7577C56.3583 42.6056 55.1209 44.7205 54.2924 47.0014L54.2512 47.1191C54.0449 47.6851 54.2145 48.319 54.6774 48.7129L57.7161 51.2756C57.574 52.1268 57.5052 52.9961 57.5052 53.8609C57.5052 54.7302 57.574 55.5995 57.7161 56.4462L54.6774 59.0088C54.451 59.2003 54.2889 59.4554 54.2128 59.7401C54.1366 60.0248 54.15 60.3256 54.2512 60.6026L54.2924 60.7203C55.122 63.0023 56.3503 65.1076 57.9452 66.964L58.0277 67.0591C58.2205 67.2829 58.4774 67.4439 58.7645 67.5207C59.0517 67.5974 59.3557 67.5865 59.6365 67.4892L63.3901 66.1716C64.7559 67.2809 66.2821 68.1593 67.9275 68.7705L68.6517 72.6372C68.706 72.9267 68.8482 73.1932 69.0594 73.401C69.2706 73.6088 69.5408 73.7483 69.8341 73.8008L69.9579 73.8234C72.3677 74.2513 74.8354 74.2513 77.2452 73.8234L77.369 73.8008C77.6623 73.7483 77.9326 73.6088 78.1438 73.401C78.355 73.1932 78.4972 72.9267 78.5515 72.6372L79.271 68.7886C80.9295 68.1745 82.4735 67.2932 83.8405 66.1807L87.5667 67.4892C87.8473 67.5872 88.1515 67.5986 88.4389 67.5218C88.7262 67.445 88.9831 67.2836 89.1754 67.0591L89.2579 66.964C90.8529 65.1031 92.0812 63.0023 92.9107 60.7203L92.952 60.6026C93.1582 60.0457 92.9886 59.4118 92.5257 59.0179ZM86.2696 51.7827C86.3842 52.4663 86.4438 53.1681 86.4438 53.8699C86.4438 54.5717 86.3842 55.2735 86.2696 55.9572L85.9671 57.7728L89.3908 60.666C88.8718 61.8472 88.2166 62.9654 87.4383 63.9983L83.1851 62.5087L81.746 63.6769C80.6506 64.5643 79.4314 65.2616 78.1115 65.7506L76.3653 66.398L75.5449 70.7899C74.2504 70.9348 72.9436 70.9348 71.6491 70.7899L70.8287 66.389L69.0962 65.7324C67.79 65.2435 66.5755 64.5462 65.4892 63.6633L64.0501 62.4906L59.7694 63.9938C58.9902 62.957 58.3394 61.8386 57.8169 60.6614L61.2773 57.7411L60.9793 55.93C60.8693 55.2554 60.8098 54.5581 60.8098 53.8699C60.8098 53.1772 60.8648 52.4844 60.9793 51.8098L61.2773 49.9987L57.8169 47.0784C58.3348 45.8967 58.9902 44.7829 59.7694 43.746L64.0501 45.2492L65.4892 44.0765C66.5755 43.1936 67.79 42.4964 69.0962 42.0074L70.8333 41.3599L71.6537 36.959C72.9416 36.8141 74.257 36.8141 75.5494 36.959L76.3698 41.3509L78.1161 41.9983C79.4314 42.4873 80.6552 43.1846 81.7506 44.072L83.1897 45.2401L87.4429 43.7505C88.2221 44.7874 88.8729 45.9057 89.3954 47.0829L85.9717 49.9761L86.2696 51.7827ZM73.6062 45.4484C69.1512 45.4484 65.5397 49.0162 65.5397 53.4171C65.5397 57.8181 69.1512 61.3859 73.6062 61.3859C78.0611 61.3859 81.6726 57.8181 81.6726 53.4171C81.6726 49.0162 78.0611 45.4484 73.6062 45.4484ZM77.2361 57.0031C76.76 57.4748 76.1942 57.8488 75.5712 58.1037C74.9482 58.3585 74.2804 58.4892 73.6062 58.4882C72.2358 58.4882 70.9479 57.9584 69.9762 57.0031C69.4988 56.5327 69.1201 55.9738 68.8621 55.3584C68.6042 54.743 68.4719 54.0832 68.4729 53.4171C68.4729 52.0634 69.0092 50.7911 69.9762 49.8312C70.9479 48.8714 72.2358 48.3461 73.6062 48.3461C74.9765 48.3461 76.2644 48.8714 77.2361 49.8312C77.7135 50.3015 78.0922 50.8605 78.3502 51.4759C78.6081 52.0913 78.7404 52.751 78.7394 53.4171C78.7394 54.7709 78.2031 56.0432 77.2361 57.0031Z" fill="#3154DF" stroke="#3154DF" stroke-width="1.02"/>
<path d="M107.072 48.2019C105.743 51.1957 100.777 51.6257 97.7652 51.8487C77.0363 53.3615 69.8277 53.1704 54.9298 52.5812C49.243 52.3583 43.7805 52.1831 41.2174 48.4407C39.1189 45.3672 39.9519 41.3382 39.9999 41.1471C40.064 40.8605 40.9451 36.9908 44.4212 34.8568C44.6295 34.7294 44.8057 34.6339 44.8858 34.5861C48.5061 32.5318 52.0464 33.4236 52.7192 33.6147C52.4629 32.4203 52.1585 30.0953 52.9595 27.3721C53.1197 26.8148 54.3531 22.8654 58.1016 20.397C62.8273 17.2917 69.6355 17.8331 74.265 21.4481C80.3523 26.2096 79.7115 33.981 79.6475 34.5542C80.0479 34.395 86.0231 32.1337 90.8128 35.7168C93.2798 37.564 94.2249 40.0643 94.5613 41.1631C98.3739 38.854 102.875 39.3158 105.326 41.8956C106.8 43.3925 108.017 46.0839 107.072 48.2019Z" fill="#FCFCFC" stroke="#252E71" stroke-width="6" stroke-miterlimit="10" stroke-linecap="round" stroke-linejoin="round"/>
<path d="M56.123 87.7549L89.7965 87.7549" stroke="#252E71" stroke-width="5" stroke-linecap="round"/>
<rect x="2.5" y="2.5" width="142.959" height="95" rx="5.5" stroke="#252E71" stroke-width="5"/>
</svg>
