<svg width="100" height="100" viewBox="0 0 100 100" fill="none" xmlns="http://www.w3.org/2000/svg">
<path d="M50.539 24.0391C62.2356 24.0391 65.3877 33.5407 65.3877 33.5407V44.6676H66.6516C66.6516 44.6676 70.4356 45.4084 70.4356 52.083C70.4356 53.1035 70.4356 54.0106 70.4319 54.8496C70.4054 59.4984 70.2351 61.6868 69.1112 64.8578C67.8511 68.4143 63.3519 75.3006 50.4179 75.3006C50.2817 75.3006 50.1417 75.3006 50.0055 75.2968C36.7537 75.1494 31.6793 68.248 30.597 63.3535C30.1619 61.392 29.6737 58.1151 29.5867 54.8458C29.4618 49.9665 30.2413 45.1061 33.4805 44.6601H35.2817V32.9474C35.2817 32.9474 37.8624 24.3452 50.0055 24.0466C50.1833 24.0428 50.3612 24.0391 50.539 24.0391ZM55.8329 44.6676C55.8329 44.6676 56.2795 36.0881 54.9626 34.153C54.1263 32.9247 52.1813 32.286 50.1833 32.286C48.1286 32.286 46.0209 32.9587 45.0143 34.3533C43.0315 37.101 43.9321 44.6676 43.9321 44.6676H55.8329ZM50.4747 68.1573C51.7462 68.1573 52.7754 65.5419 52.7754 62.3179C52.7754 61.6074 52.7224 60.9309 52.6316 60.2997C53.4603 59.6307 53.9901 58.6065 53.9901 57.4575C53.9901 56.4332 53.5663 55.511 52.8889 54.8496C52.2305 54.2033 51.3261 53.8027 50.3309 53.8027C49.3357 53.8027 48.4351 54.2033 47.7729 54.8496C47.0955 55.5148 46.6717 56.437 46.6717 57.4575C46.6717 58.7198 47.315 59.8348 48.2913 60.4924C48.2156 61.0669 48.174 61.6792 48.174 62.3179C48.1778 65.5419 49.2071 68.1573 50.4747 68.1573Z" fill="white"/>
<path d="M9.87195 78.6155C9.30434 79.0539 8.71781 79.6246 8.02911 80.0215C5.62623 81.3972 2.46275 79.6851 2.69358 76.9412C3.03036 72.9576 3.6396 68.9853 4.35479 65.0509C4.7067 63.1157 7.25338 61.9706 9.26272 62.8625C12.816 64.4386 16.3351 66.128 19.7143 68.048C22.2383 69.4804 21.9583 72.9425 19.3775 74.356C18.7342 74.7075 17.9812 74.8587 16.8725 75.2404C18.3634 76.9374 19.6765 78.6495 21.2052 80.1349C30.2908 88.9638 41.2267 93.3216 53.8541 92.3427C66.5307 91.36 76.7704 85.5207 84.3537 75.1988C89.8973 67.6549 92.4213 59.1586 92.6446 49.8912C92.6938 47.7785 94.1241 46.3725 96.2054 46.3347C98.3736 46.2969 99.9554 47.7142 99.9932 49.8723C100.122 57.5901 98.4455 64.9299 95.0626 71.8577C89.1822 83.9106 80.055 92.6942 67.3443 96.9764C48.2651 103.402 31.093 99.554 16.3427 85.7437C14.0306 83.5742 12.0591 81.042 9.87195 78.6155Z" fill="white"/>
<path d="M89.3258 20.0672C90.4913 18.2833 91.8233 17.0436 94.0408 17.569C95.9139 18.0112 97.2534 19.4511 97.0188 21.3333C96.5345 25.2489 95.9328 29.1569 95.1457 33.0196C94.7068 35.1701 92.2585 36.3342 90.2189 35.3969C86.6278 33.7415 83.067 31.9878 79.6273 30.0413C77.1714 28.6505 77.3417 25.1091 79.7635 23.6048C80.2365 23.3138 80.7738 23.1286 81.4701 22.8036C78.1931 18.7973 74.3372 15.6527 69.9325 13.215C54.5011 4.66948 36.8636 6.04145 23.1577 17.123C14.0457 24.4892 8.96367 34.1988 7.83602 45.8964C7.52573 49.1203 5.87966 50.9307 3.42758 50.6245C1.21012 50.3486 -0.106731 48.8368 0.00679073 46.452C0.358709 39.2558 2.30372 32.4527 5.78506 26.1825C13.7846 11.7787 25.9125 2.77973 42.3013 0.53092C59.7685 -1.86529 74.602 3.89846 86.5975 16.8319C87.0667 17.3384 87.5095 17.8713 87.9522 18.3967C88.3987 18.922 88.8263 19.4511 89.3258 20.0672Z" fill="white"/>
</svg>
