<svg width="63" height="100" viewBox="0 0 63 100" fill="none" xmlns="http://www.w3.org/2000/svg">
<path d="M27.6299 36.335C26.6712 36.335 25.9805 37.0278 25.9805 37.9844C25.9805 38.941 26.6764 39.6338 27.6299 39.6338C28.5886 39.6338 29.2793 38.941 29.2793 37.9844C29.2845 37.033 28.5886 36.335 27.6299 36.335ZM47.933 41.3194C47.2217 40.6059 46.2475 40.2078 45.1909 40.2078C44.9899 40.2078 44.8094 40.2284 44.6394 40.2595V40.2078H44.4538C44.1703 38.6256 43.4951 37.0795 42.49 35.6887C41.5261 34.3598 40.2736 33.212 38.8407 32.333L40.1344 30.4819V30.3113C40.1344 30.2699 40.155 30.1923 40.1705 30.1148C40.2014 29.9907 40.2427 29.8304 40.2427 29.6546C40.2427 28.698 39.5468 28.0052 38.5933 28.0052C38.0881 28.0052 37.5882 28.2999 37.2583 28.8014L35.7481 30.9783C34.2017 30.4715 32.5317 30.2027 30.9133 30.2027C29.2999 30.2027 27.6299 30.4715 26.0785 30.9783L24.5734 28.7963C24.2332 28.2999 23.7435 28 23.2332 28C22.2745 28 21.5838 28.6929 21.5838 29.6494C21.5838 29.97 21.7127 30.3113 21.9292 30.5491L23.0941 32.2192C21.6148 33.0982 20.3365 34.2564 19.3726 35.5852C18.3727 36.9761 17.7232 38.5221 17.481 40.1043H17.1975V40.156C17.0325 40.125 16.8521 40.1043 16.6459 40.1043C15.5996 40.1043 14.6254 40.4921 13.909 41.2057C13.1977 41.9192 12.8008 42.8913 12.8008 43.9461V56.097C12.8008 57.1466 13.1874 58.1187 13.9038 58.8322C14.6151 59.5457 15.5945 59.9439 16.6459 59.9439C16.847 59.9439 17.0274 59.9232 17.1975 59.8922V64.7267C17.1975 66.2365 18.4294 67.4723 19.9396 67.4723H21.5838V70.4867C21.5838 71.5363 21.9704 72.5084 22.6869 73.2219C23.3982 73.9355 24.3775 74.3336 25.429 74.3336C26.4753 74.3336 27.4495 73.9458 28.166 73.2323C28.8773 72.5187 29.2742 71.5467 29.2742 70.4919V67.4826H32.5627V70.4867C32.5627 71.5363 32.9492 72.5084 33.6657 73.2219C34.377 73.9355 35.3563 74.3336 36.4078 74.3336C37.4593 74.3336 38.4283 73.9458 39.1448 73.2168C39.8561 72.5032 40.253 71.5312 40.253 70.4764V67.4671H41.8972C43.4075 67.4671 44.6394 66.2365 44.6394 64.7215V59.9956C44.8043 60.0266 44.9847 60.0473 45.1909 60.0473C46.2372 60.0473 47.2114 59.6595 47.9278 58.946C48.6391 58.2324 49.036 57.2603 49.036 56.2055V44.0547C49.0309 43.005 48.6443 42.0381 47.933 41.3194ZM17.2026 56.2107C17.2026 56.5623 17.0016 56.7588 16.6511 56.7588C16.3006 56.7588 16.0996 56.5623 16.0996 56.2107V44.0547C16.0996 43.7031 16.3006 43.5066 16.6511 43.5066C17.0016 43.5066 17.2026 43.7031 17.2026 44.0547V56.2107ZM23.96 35.6938C25.8929 34.2823 28.3567 33.5067 30.9184 33.5067C33.4801 33.5067 35.9439 34.2874 37.8768 35.7042C39.5468 36.9296 40.6705 38.5066 41.1086 40.2284H20.7282C21.1663 38.5015 22.3003 36.9193 23.96 35.6938ZM25.9857 70.5798C25.9547 70.8693 25.7589 71.0296 25.4445 71.0296C25.094 71.0296 24.8929 70.8331 24.8929 70.4815V67.4723H25.9857V70.5798ZM36.413 71.0296C36.0625 71.0296 35.8615 70.8331 35.8615 70.4815V67.4723H36.9542V70.5798C36.9233 70.8693 36.7325 71.0296 36.413 71.0296ZM41.3509 64.1734H20.4963V43.5118H41.3509V64.1734ZM45.7424 56.2107C45.7424 56.5623 45.5414 56.7588 45.1909 56.7588C44.8404 56.7588 44.6394 56.5623 44.6394 56.2107V44.0547C44.6394 43.7031 44.8404 43.5066 45.1909 43.5066C45.5414 43.5066 45.7424 43.7031 45.7424 44.0547V56.2107ZM34.2172 36.335C33.2585 36.335 32.5678 37.0278 32.5678 37.9844C32.5678 38.941 33.2636 39.6338 34.2172 39.6338C35.1759 39.6338 35.8718 38.941 35.8718 37.9792C35.8666 37.0175 35.1811 36.335 34.2172 36.335Z" fill="#3154DF"/>
<rect x="2.5" y="2.5" width="57.4" height="95" rx="12.5" stroke="#252E71" stroke-width="5"/>
<path d="M19.2012 9.6001H42.4012" stroke="#252E71" stroke-width="5" stroke-linecap="round"/>
</svg>
