<svg width="96" height="106" viewBox="0 0 96 106" fill="none" xmlns="http://www.w3.org/2000/svg">
<path d="M61.6762 16.9616H12.7793V8.58464C12.7793 5.49478 14.6146 3 16.8877 3H57.5678C59.8409 3 61.6762 5.49478 61.6762 8.58464V16.9616V16.9616Z" stroke="#FCFCFC" stroke-width="5" stroke-miterlimit="10" stroke-linecap="round"/>
<path d="M55.8975 103H8.08804C5.27668 103 3 100.714 3 97.8915V22.6883C3 19.8658 5.27668 17.5801 8.08804 17.5801H66.5056C69.317 17.5801 71.5937 19.8658 71.5937 22.6883V39.6753" stroke="#FCFCFC" stroke-width="5" stroke-miterlimit="10" stroke-linecap="round"/>
<path d="M15.5742 32.3184H58.8829" stroke="#FCFCFC" stroke-width="5" stroke-miterlimit="10" stroke-linecap="round"/>
<path d="M15.5742 50.4688H45.6109" stroke="#FCFCFC" stroke-width="5" stroke-miterlimit="10" stroke-linecap="round"/>
<path d="M15.5742 68.6191H36.53" stroke="#FCFCFC" stroke-width="5" stroke-miterlimit="10" stroke-linecap="round"/>
<path d="M15.5742 86.7686H36.53" stroke="#FCFCFC" stroke-width="5" stroke-miterlimit="10" stroke-linecap="round"/>
<path d="M71.3269 96.306C83.2963 96.306 92.9994 86.5644 92.9994 74.5475C92.9994 62.5307 83.2963 52.7891 71.3269 52.7891C59.3574 52.7891 49.6543 62.5307 49.6543 74.5475C49.6543 86.5644 59.3574 96.306 71.3269 96.306Z" stroke="#FCFCFC" stroke-width="5" stroke-miterlimit="10"/>
<path d="M61.75 78.6519L67.0252 83.7901C68.2546 84.9958 70.0702 84.7231 71.028 83.1873L80.8922 67.5" stroke="#FCFCFC" stroke-width="5" stroke-miterlimit="10" stroke-linecap="round"/>
</svg>
