<svg width="63" height="100" viewBox="0 0 63 100" fill="none" xmlns="http://www.w3.org/2000/svg">
<rect x="2.5" y="2.5" width="57.4" height="95" rx="12.5" stroke="#252E71" stroke-width="5"/>
<path d="M19.2012 9.6001H42.4012" stroke="#252E71" stroke-width="5" stroke-linecap="round"/>
<path d="M37.704 34.806C39.0283 33.1083 39.4814 31.0013 39.7602 29.725C40.0158 28.5571 40.0971 27.5577 40.1319 26.8232C39.5859 26.8834 35.1018 27.4975 32.732 31.6515C31.187 34.3606 31.4077 37.0696 31.5239 37.9968C32.5694 37.8884 35.6943 37.3947 37.704 34.806Z" stroke="#3154DF" stroke-width="5" stroke-miterlimit="10" stroke-linecap="round" stroke-linejoin="round"/>
<path d="M48.8226 61.4625C48.1175 61.1459 45.7017 59.9733 44.2916 57.1123C43.9448 56.4205 42.7311 53.8408 43.6096 50.6749C44.5112 47.4503 46.9501 45.8908 47.4934 45.5508C47.0541 44.8941 46.5224 44.2844 45.8751 43.7333C43.1472 41.3764 39.5871 41.1302 39.3213 41.1185C37.31 41.0012 35.4375 41.4937 34.952 41.6227C32.9292 42.1621 32.9986 42.6194 31.7733 42.7366C29.6581 42.936 29.0686 41.6344 26.2135 41.224C25.624 41.1419 24.2139 40.9895 22.6419 41.3295C19.6019 41.9745 17.7178 44.0616 17.1861 44.6596C13.7878 48.4001 13.9958 53.5008 14.1114 56.139C14.3079 61.0404 16.1573 64.4643 17.2901 66.5162C19.914 71.2651 22.873 73.0826 23.948 73.2702C25.4507 73.5165 26.9302 73.2702 26.9302 73.2702C28.0861 72.9419 28.4906 72.3673 29.8083 72.0625C30.6752 71.8631 31.3457 71.91 32.097 71.9569C35.1716 72.1915 35.6109 73.2819 37.8533 73.364C38.1885 73.3757 40.2806 73.4226 42.2341 72.1328C43.4478 71.3238 44.1066 70.3271 44.7655 69.2366C45.8636 67.4074 47.3084 64.8277 48.8226 61.4625Z" stroke="#3154DF" stroke-width="5" stroke-miterlimit="10" stroke-linecap="round" stroke-linejoin="round"/>
</svg>
