<svg width="148" height="100" viewBox="0 0 148 100" fill="none" xmlns="http://www.w3.org/2000/svg">
<path d="M77.623 76.2603C78.8387 76.2515 92.945 75.8556 101.193 63.0798C109.727 49.864 104.131 35.566 103.725 34.5718" stroke="#3154DF" stroke-width="3.5" stroke-miterlimit="10" stroke-linecap="round" stroke-linejoin="round"/>
<path d="M45.4149 55.8796C44.6005 54.0092 40.0452 42.9893 44.9907 31.2635C49.4782 20.6495 59.9886 13.6264 71.8816 13.2646" stroke="#3154DF" stroke-width="3.5" stroke-miterlimit="10" stroke-linecap="round" stroke-linejoin="round"/>
<path d="M41.8359 55.8799L45.8124 57.2694" stroke="#3154DF" stroke-width="3.5" stroke-miterlimit="10" stroke-linecap="round" stroke-linejoin="round"/>
<path d="M47.5779 53.5635L45.8105 57.2689" stroke="#3154DF" stroke-width="3.5" stroke-miterlimit="10" stroke-linecap="round" stroke-linejoin="round"/>
<path d="M108.111 34.5723L102.809 33.1826" stroke="#3154DF" stroke-width="3.5" stroke-miterlimit="10" stroke-linecap="round" stroke-linejoin="round"/>
<path d="M101.041 37.3516L102.808 33.1826" stroke="#3154DF" stroke-width="3.5" stroke-miterlimit="10" stroke-linecap="round" stroke-linejoin="round"/>
<path d="M74.3422 66.4527C85.9793 66.4527 95.413 56.7093 95.413 44.6902C95.413 32.6711 85.9793 22.9277 74.3422 22.9277C62.7052 22.9277 53.2715 32.6711 53.2715 44.6902C53.2715 56.7093 62.7052 66.4527 74.3422 66.4527Z" stroke="#252E71" stroke-width="3.5" stroke-miterlimit="10" stroke-linecap="round" stroke-linejoin="round"/>
<path d="M74.1513 22.9272C73.3035 23.4799 63.0135 30.4731 62.5677 43.7839C62.2607 52.9111 66.6969 61.5624 74.1513 66.4522" stroke="#252E71" stroke-width="3.5" stroke-miterlimit="10" stroke-linecap="round" stroke-linejoin="round"/>
<path d="M74.1484 22.9272C75.0667 23.5415 85.4237 30.7201 85.7398 44.064C86.071 58.191 74.8334 65.9915 74.1484 66.4522" stroke="#252E71" stroke-width="3.5" stroke-miterlimit="10" stroke-linecap="round" stroke-linejoin="round"/>
<path d="M53.2715 44.6899H95.413" stroke="#252E71" stroke-width="3.5" stroke-miterlimit="10" stroke-linecap="round" stroke-linejoin="round"/>
<path d="M57.9121 31.3901C61.1373 32.8742 66.8577 34.9932 74.2391 35.017C81.7323 35.0408 87.5346 32.8821 90.7747 31.3901" stroke="#252E71" stroke-width="3.5" stroke-miterlimit="10" stroke-linecap="round" stroke-linejoin="round"/>
<path d="M57.9121 58.3917C61.1373 57.0724 66.8577 55.1888 74.2391 55.1677C81.7323 55.1465 87.5346 57.0654 90.7747 58.3917" stroke="#252E71" stroke-width="3.5" stroke-miterlimit="10" stroke-linecap="round" stroke-linejoin="round"/>
<path d="M74.1484 22.9272C74.1484 30.175 74.1484 37.4304 74.1484 44.6782C74.1484 51.9336 74.1484 59.1968 74.1484 66.4522" stroke="#252E71" stroke-width="3.5" stroke-miterlimit="10" stroke-linecap="round" stroke-linejoin="round"/>
<path d="M56.1211 87.7549L89.7946 87.7549" stroke="#252E71" stroke-width="5" stroke-linecap="round"/>
<rect x="2.5" y="2.5" width="142.959" height="95" rx="5.5" stroke="#252E71" stroke-width="5"/>
</svg>
